<svg xmlns="http://www.w3.org/2000/svg" xmlns:xlink="http://www.w3.org/1999/xlink" width="991" height="990" viewBox="0 0 991 990"><defs><polygon id="a" points="0 0 52.428 0 52.428 46.26 0 46.26"/><polygon id="c" points="0 0 46.26 0 46.26 51.4 0 51.4"/><polygon id="e" points="0 0 52.428 0 52.428 46.26 0 46.26"/><polygon id="g" points="0 0 46.26 0 46.26 51.4 0 51.4"/></defs><g fill="none" fill-rule="evenodd"><g transform="translate(441.016 943.712)"><mask id="b" fill="#fff"><use xlink:href="#a"/></mask><path fill="#000" d="M41.6772518,45.5272176 L42.9747396,24.1439897 L26.3145274,23.1532908 C16.0635922,22.5437789 9.17166535,25.8931923 8.73005053,33.1879864 C8.28648166,40.4866504 13.4197654,43.8476735 23.9286349,44.4707302 L41.6772518,45.5272176 Z M8.28061952,10.8759783 C7.8390047,18.1707723 13.7070105,22.1490473 25.8807288,22.8727218 L42.990372,23.8905101 L44.338665,1.62107107 L25.7576237,0.514274722 C14.9302444,-0.130066506 8.72418839,3.57731425 8.28061952,10.8759783 L8.28061952,10.8759783 Z M0.0169510391,10.3825638 C0.497646817,2.45116832 8.73005053,-0.75118823 23.850473,0.14663258 L52.4284232,1.84552627 L49.7357453,46.2605669 L22.50218,44.6410066 C8.66165885,43.8186491 0.478106338,39.894553 0.929491398,32.4062631 C1.36915217,25.1733877 11.7471005,22.6695512 23.6921951,22.9346405 C11.2742209,21.9420067 -0.50868784,19.0124793 0.0169510391,10.3825638 L0.0169510391,10.3825638 Z" mask="url(#b)"/></g><path fill="#000" d="M405.088726,960.288112 C394.254562,958.145826 387.885843,960.255184 386.484956,967.371603 C385.082138,974.488022 389.238423,978.683494 399.139307,980.643705 L416.388565,984.056642 L420.469491,963.333025 L405.088726,960.288112 Z M383.472568,932.403527 L392.129079,934.115806 C392.569634,936.473096 392.432443,941.441418 392.109756,946.369063 C391.740695,953.495167 394.067133,957.783613 402.598047,959.470712 L420.517798,963.083157 L424.944598,940.612396 L432.791494,942.165844 L424.185221,985.859959 L398.466882,980.769608 C383.895732,977.885463 376.989846,973.535034 378.514397,965.794911 C379.977115,958.366641 386.583502,957.016574 399.684204,959.154986 C387.565088,956.301833 383.360497,952.35623 383.828103,944.732326 C384.137264,939.539316 384.125671,934.671716 383.472568,932.403527 L383.472568,932.403527 Z"/><polygon fill="#000" points="360.434 970.44 352.607 968.175 365.34 925.207 373.167 927.472"/><path fill="#000" d="M292.982365 947.894451 309.359634 905.675311 309.77871 905.840907 337.012798 964.856231C347.448583 937.958681 349.254136 930.812417 347.164629 920.537568L353.634855 923.080652 337.255628 965.299793 327.011757 961.272257 305.777902 916.153212 293.401441 948.060047 292.982365 947.894451ZM242.559136 896.583394C250.00575 884.015003 263.136376 880.612886 276.154905 887.811765 291.361228 896.303449 295.325154 910.56901 289.190829 921.679351 283.213051 932.509747 269.322883 936.364831 253.391805 927.468782 238.129434 918.944049 234.020558 906.130706 243.755465 903.096018L243.977723 903.218494C241.154078 909.385073 242.027649 920.82785 253.515497 927.24327 265.449793 933.909475 275.948109 928.963769 280.818461 920.143538 286.210637 910.372659 283.129946 898.719923 270.53274 891.682402 259.85082 886.301225 248.838412 886.653101 242.837442 896.736975 248.316589 899.43534 265.190814 906.886948 270.405184 905.197554L267.262647 910.891725C259.023633 906.218189 250.587487 901.505771 242.404522 896.86334L242.559136 896.583394Z"/><polygon fill="#000" points="220.487 906.703 213.826 902.1 239.033 864.555 245.694 869.159"/><path fill="#000" d="M164.481328 863.367824 192.715055 828.574689 193.062708 828.857861 200.916956 892.847077C218.90559 870.677585 222.772506 864.492703 223.908691 854.163735L229.245851 858.544124 201.012123 893.339212 192.559679 886.402457 186.164022 837.356948 164.828981 863.650997 164.481328 863.367824ZM131.717459 799.442204C142.737981 789.613899 156.413111 790.431608 166.719231 801.466725 178.731328 814.439456 178.157464 829.478185 168.844869 838.307068 159.768456 846.912761 145.226675 846.296517 132.644619 832.707542 120.587629 819.687407 120.573965 806.0056 130.866423 806.116208L131.042095 806.305822C126.43362 811.387862 123.75559 822.729125 132.830051 832.529779 142.255858 842.709659 153.873667 841.208552 161.267528 834.200749 169.453867 826.436467 170.074577 814.200463 160.123704 803.451742 151.505992 794.907279 140.809487 791.800381 131.936073 799.679221 136.380588 804.002807 150.311419 816.487678 155.847055 816.487678L151.074618 821.012727C144.59035 813.912093 137.926506 806.716651 131.483229 799.66342L131.717459 799.442204Z"/><polygon fill="#000" points="93.768 740.859 110.889 729.886 115.137 736.749 99.726 746.625 90.379 781.286 85.157 772.842 93.581 741.282 61.95 735.317 61.68 734.88"/><path fill="#000" d="M58.1299662 675.85275C46.3978969 681.216751 40.6549535 692.609199 45.9961272 703.918349 51.3648734 715.285615 63.9241155 718.315336 75.6561848 712.953272 87.3291703 707.618328 93.0149994 696.251063 87.6442838 684.883798 82.3031101 673.574648 69.8049211 670.517807 58.1299662 675.85275M54.4234437 668.005308C67.0338918 662.244189 81.1214345 670.46744 87.8786494 684.775317 94.6398033 699.085131 91.9770943 715.037658 79.3627073 720.800714 66.5750078 726.645131 52.520946 718.336644 45.7617615 704.026831 39.0025771 689.717017 41.6357442 673.851662 54.4234437 668.005308M64.6698485 624.685441C70.5098415 643.916903 63.8333036 651.147382 52.1513398 654.69478L27.9805321 662.037344 25.5895563 654.252339 50.8164278 646.591217C59.4528144 643.968029 68.8565282 639.421696 64.4206649 624.760165 59.353932 608.263975 50.236977 607.115594 39.7317135 610.509612L14.5068197 618.172701 14.3921162 617.803016 39.4943958 610.17729C50.1242511 606.745909 59.4488591 607.695684 64.6698485 624.685441M28.184688 574.205611C26.3189134 563.185731 21.9997344 557.911358 14.6949205 559.117544 7.38614939 560.325684 4.87932401 565.75254 6.58285728 575.822329L9.55266382 593.363821 30.8319905 589.848876 28.184688 574.205611ZM47.0224815 543.81639 48.5123312 552.619392C46.4210017 553.87836 41.6249917 555.514627 36.7973248 556.965178 29.8526073 559.152732 26.5959107 562.880763 28.0639963 571.556695L31.0872237 589.803913 54.1610971 585.993775 55.5124481 593.971801 10.6468031 601.384855 6.21880371 575.229989C3.71197833 560.4117 5.37396201 552.326154 13.3218054 551.012448 20.9491233 549.751525 24.6272515 555.524402 27.3161036 568.686874 25.6640127 556.198849 27.9136263 550.815001 35.3707888 548.54143 40.4437961 546.987269 45.0914148 545.243481 47.0224815 543.81639L47.0224815 543.81639Z"/><g transform="translate(0 459.52)"><mask id="d" fill="#fff"><use xlink:href="#c"/></mask><path fill="#000" d="M46.2603734,27.2489757 L-0.000587142538,51.4004149 L0.189255611,41.9384242 L38.0599493,22.6094852 C15.6350187,9.18163542 8.84373662,4.76019903 0.88599809,7.2249892 L1.03278372,0 L46.2603734,27.2489757 Z" mask="url(#d)"/></g><polygon fill="#000" points="3.084 446.327 3.934 437.932 48.316 442.898 47.466 451.296"/><path fill="#000" d="M45.676981,381.206807 C55.5854957,383.160653 56.733125,396.058783 54.6245993,406.938331 C51.1525344,424.836816 42.0337442,436.960077 33.9342044,427.351706 L33.9828328,427.100609 C41.4502039,426.863244 51.8488925,420.246455 54.373677,406.889289 C56.6047462,395.70764 54.5448488,388.535691 49.8415138,387.609772 C42.8156882,386.224817 40.3842702,392.049083 35.7645759,404.796162 C31.5922626,416.252448 27.3518695,426.712194 17.5055991,424.770118 C8.03473957,422.904548 7.09134937,410.636122 9.08900243,400.325465 L9.10261837,400.26269 C12.4229628,383.123381 22.6621504,374.305571 29.0499719,382.328895 L29.0032887,382.581953 C21.7829497,382.209232 11.6915923,387.574461 9.35354071,400.311733 L9.33992477,400.374507 C7.34032658,410.027997 9.37882746,417.653097 14.1444068,418.592748 C20.4174653,419.828614 23.7864381,411.167741 27.2662836,401.610373 C31.9735089,388.749515 35.8307105,379.266693 45.676981,381.206807"/><polygon fill="#000" points="18.504 361.55 20.732 353.635 63.737 366.282 61.51 374.195"/><path fill="#000" d="M63.6906791 301.540948C51.7633556 296.79779 39.4980978 300.57 34.8607794 312.284015 30.1980671 324.058713 36.5445909 335.230485 48.4719144 339.973643 60.3406365 344.69331 72.5433863 340.895652 77.2060985 329.122911 81.8453703 317.406939 75.5594012 306.260615 63.6906791 301.540948M66.9078919 293.413176C79.7318157 298.510651 83.3143102 314.39426 77.4444106 329.218831 71.5764644 344.041444 58.0766719 353.200848 45.2547015 348.101415 32.2510669 342.93151 28.7525677 327.012665 34.6224673 312.188094 40.4904136 297.365481 53.9062108 288.241313 66.9078919 293.413176M75.9453381 230.273859 115.136929 252.579186 114.915442 252.971712 52.8988399 271.52841C77.8701264 285.737874 84.6421669 288.554253 95.0579766 287.95565L91.6200146 294.010373 52.4284232 271.703084 57.8695764 262.117583 105.340502 247.523442 75.7238503 230.666386 75.9453381 230.273859ZM144.381242 158.764778C137.028335 158.352643 130.29997 160.165256 121.486567 170.472534L155.229253 199.450889 150.017631 205.60166 116.278823 176.625258C107.60313 186.965741 106.887429 193.942735 108.454601 201.189277L100.744813 194.569727 136.673394 152.145228 144.381242 158.764778ZM197.219596 127.978323C188.772199 118.249614 176.260469 116.08327 166.978571 124.585972 157.646447 133.130334 158.312889 146.1403 166.762218 155.870994 175.167118 165.550107 187.636349 167.668839 196.966541 159.122493 206.252303 150.621776 205.626427 137.659421 197.219596 127.978323M203.661871 122.078409C212.742871 132.537168 208.883301 148.560575 197.136532 159.318893 185.389763 170.075227 169.402875 172.229668 160.319943 161.768924 151.113381 151.165345 155.06181 135.14789 166.808579 124.389572 178.555349 113.633238 194.453378 111.474829 203.661871 122.078409M279.793278 85.2733542 285.786307 95.411938 246.123847 119.248963 223.077801 80.2563841 230.038016 76.0726141 252.952886 114.844059C272.883967 102.713298 280.022348 97.0645172 279.793278 85.2733542"/><polygon fill="#000" points="275.506 50.855 282.711 47.288 302.234 87.924 295.03 91.493"/><path fill="#000" d="M296.06639 41.4087484 339.038742 24.6721992 342.80511 34.2989858C333.122971 27.7828424 318.843387 32.8871872 303.740586 38.7198874L311.410852 58.3327564C321.652936 54.2399076 335.726225 48.2529446 341.879727 42.916229L344.38278 49.3152107C336.239016 49.569061 321.794396 54.5992035 311.481582 58.5143571L320.01436 80.3396296 312.434471 83.2686722 296.06639 41.4087484ZM405.307633 41.2233414 408.119295 52.4741076 363.420633 63.7365145 352.606846 20.4679187 396.594379 9.25207469 399.083328 19.2029593C390.439642 11.5918616 375.878905 14.8667871 360.42346 18.7606115L365.492181 39.0348841C375.989052 36.2566297 390.457033 32.087308 397.119996 27.5842853L398.77221 34.1981605C390.797138 33.4473334 376.081808 36.6291331 365.538559 39.2211358L371.117437 61.5344763C393.373046 55.7955961 402.208041 52.3868021 405.307633 41.2233414M442.085807 29.637334C441.605464 24.5558921 445.272998 20.0511365 450.489834 19.5715354 455.57871 19.1035845 460.023849 22.8607836 460.504191 27.9422256 460.992408 33.0877438 457.318968 37.5245397 452.230092 37.9944323 447.015225 38.4740334 442.572055 34.7809105 442.085807 29.637334"/><g transform="translate(498.584)"><mask id="f" fill="#fff"><use xlink:href="#e"/></mask><path fill="#000" d="M10.8282418,0.747455129 L9.49228988,22.1024878 L26.1448132,23.1208664 C36.3929706,23.7469664 43.2856231,20.4174286 43.7426593,13.1303209 C44.1977423,5.84321308 39.0726871,2.47695963 28.5686675,1.83346801 L10.8282418,0.747455129 Z M44.1489137,35.4167738 C44.6039967,28.1315984 38.7465117,24.1469747 26.5764585,23.4029979 L9.47861786,22.3556331 L8.08602471,44.5957083 L26.6584907,45.7319638 C37.4828262,46.3967119 43.6918775,42.705814 44.1489137,35.4167738 L44.1489137,35.4167738 Z M52.4107215,35.9249969 C51.9146224,43.8459343 43.6782055,47.0305414 28.5647612,46.1049184 L0,44.3541574 L2.77542056,-0.000386481452 L29.9944641,1.66728099 C43.8285977,2.51367537 52.0044672,6.44805655 51.5376652,13.9245402 C51.0845354,21.149811 40.7074703,23.6310219 28.7678884,23.3450256 C41.1762254,24.3595395 52.9478367,27.3064605 52.4107215,35.9249969 L52.4107215,35.9249969 Z" mask="url(#f)"/></g><path fill="#000" d="M586.948699,29.683535 C597.767918,31.8441529 604.135118,29.7473671 605.550266,22.644602 C606.963483,15.5418369 602.820363,11.346331 592.931704,9.36947208 L575.706672,5.92834486 L571.58865,26.6137942 L586.948699,29.683535 Z M608.490607,57.5684647 L599.847201,55.8411311 C599.41088,53.4870828 599.555677,48.5275268 599.889675,43.6047225 C600.270008,36.4922859 597.955189,32.2058677 589.435343,30.50368 L571.538454,26.8633195 L567.072919,49.2935113 L559.236515,47.7267248 L567.920464,4.1120332 L593.603561,9.24567661 C608.154678,12.1529359 615.047008,16.508989 613.510231,24.2365343 C612.033303,31.6507224 605.430567,32.9873267 592.346725,30.8267088 C604.447879,33.6972163 608.641196,37.6451312 608.16047,45.2585526 C607.839986,50.4405537 607.841917,55.3014602 608.490607,57.5684647 L608.490607,57.5684647 Z"/><polygon fill="#000" points="631.629 19.532 639.421 21.812 626.653 64.765 618.861 62.484"/><path fill="#000" d="M699.045643 43.176009 682.601158 85.3246888 682.182514 85.1573149 655.078261 26.1452251C644.602385 52.9979018 642.785001 60.1339362 644.854745 70.4028156L638.393154 67.8488872 654.837639 25.7002075 665.067025 29.7447479 686.200712 74.8628371 698.626999 43.0106043 699.045643 43.176009ZM749.443152 94.4633078C741.971528 107.010903 728.82951 110.384393 715.82471 103.163259 700.634083 94.640144 696.703074 80.3708252 702.858563 69.2767846 708.859441 58.4645158 722.759057 54.6382475 738.672495 63.5655592 753.917236 72.1197661 758.000925 84.9374736 748.258438 87.9495183L748.036183 87.8270932C750.87138 81.6689193 750.02488 70.2270361 738.546873 63.7890335 726.62629 57.1003511 716.11654 62.0245583 711.230802 70.8313883 705.815517 80.5865265 708.871037 92.2421678 721.456452 99.3020118 732.126611 104.706203 743.140781 104.379736 749.164851 94.3078474 743.687721 91.5989505 726.83115 84.1174202 721.611064 85.7925057L724.765148 80.1065426C732.996303 84.7975593 741.424588 89.5254978 749.597764 94.1834791L749.443152 94.4633078Z"/><polygon fill="#000" points="771.564 83.269 778.202 87.891 752.972 125.417 746.334 120.794"/><path fill="#000" d="M827.54668 126.668756 799.249106 161.397303 798.903374 161.114147 791.172964 97.124885C773.144404 119.252031 769.267545 125.426776 768.109925 135.751216L762.782158 131.361327 791.079732 96.6327801 799.517145 103.582786 805.81607 152.629243 827.200949 126.383647 827.54668 126.668756ZM860.284845 190.558149C849.245021 200.367268 835.568762 199.525809 825.276903 188.47623 813.284056 175.484973 813.881648 160.453278 823.21072 151.641663 832.305442 143.051276 846.848795 143.691259 859.411892 157.298795 871.451609 170.337457 871.441845 184.014127 861.144127 183.887711L860.970318 183.698086C865.58896 178.62563 868.285935 167.291613 859.224413 157.476568 849.813319 147.284249 838.191526 148.763715 830.786074 155.760071 822.581881 163.508999 821.941325 175.739781 831.879706 186.500974 840.484247 195.059757 851.178406 198.182636 860.066119 190.323094 855.629097 185.991358 841.71263 173.486015 836.176118 173.478114L840.958805 168.960704C847.432716 176.069649 854.086295 183.275382 860.519195 190.338896L860.284845 190.558149Z"/><polygon fill="#000" points="897.24 249.14 880.095 260.086 875.863 253.208 891.293 243.359 900.711 208.686 905.917 217.148 897.427 248.717 929.05 254.755 929.32 255.193"/><path fill="#000" d="M932.841969 315.155968C944.587101 309.813997 950.352321 298.431087 945.028307 287.117881 939.674749 275.744652 927.116143 272.693204 915.371011 278.035175 903.682999 283.350039 897.978839 294.705842 903.330428 306.081007 908.656411 317.394213 921.153957 320.470832 932.841969 315.155968M936.537067 323.007252C923.909523 328.750016 909.832303 320.503748 903.094068 306.185561 896.357802 291.869311 899.050339 275.926655 911.675913 270.183891 924.478757 264.363679 938.524462 272.693204 945.262698 287.009454 952.000933 301.325704 949.337941 317.185104 936.537067 323.007252M926.308833 366.272236C920.49992 347.015234 927.195509 339.792628 938.892502 336.263982L963.093997 328.962656 965.471 336.757953 940.21262 344.376129C931.565553 346.985714 922.144625 351.516078 926.558211 366.197451 931.59722 382.713011 940.717312 383.880043 951.23669 380.502933L976.493091 372.882789 976.607884 373.254744 951.474192 380.837496C940.830126 384.251997 931.498261 383.283735 926.308833 366.272236M963.279752 415.766701C965.08796 426.80369 969.311639 432.093225 976.482386 430.897552 983.649253 429.701878 986.119047 424.275358 984.46605 414.189429L981.588827 396.622221 960.712951 400.101613 963.279752 415.766701ZM944.743682 446.155602 943.30022 437.339709C945.356765 436.085328 950.063538 434.455219 954.801353 433.012974 961.615115 430.83493 964.814401 427.108968 963.39228 418.418318L960.460733 400.144665 937.825153 403.915636 936.51556 395.923604 980.531452 388.587137 984.823036 414.782373C987.252087 429.623601 985.608791 437.715436 977.81138 439.016783 970.328271 440.263337 966.731256 434.478702 964.121772 421.29498 965.716565 433.799653 963.498988 439.187035 956.182731 441.447269 951.202399 442.995187 946.643076 444.732926 944.743682 446.155602L944.743682 446.155602Z"/><g transform="translate(944.74 480.08)"><mask id="h" fill="#fff"><use xlink:href="#g"/></mask><path fill="#000" d="M0,24.0666867 L46.260569,0 L46.0552793,9.46040213 L8.18617143,28.7219288 C30.5627494,42.1950679 37.3392649,46.6264067 45.2927746,44.1770991 L45.1344083,51.4004149 L0,24.0666867 Z" mask="url(#h)"/></g><polygon fill="#000" points="987.916 544.728 987.05 553.068 942.684 548.047 943.551 539.704"/><path fill="#000" d="M945.28557,609.752012 C935.383654,607.781553 934.263563,594.888283 936.392902,584.02037 C939.895132,566.139193 949.034763,554.039988 957.112642,563.657003 L957.064027,563.909928 C949.596753,564.131482 939.189241,570.725166 936.643756,584.069387 C934.388017,595.241201 936.435684,602.411318 941.135788,603.34459 C948.155803,604.742537 950.596279,598.927234 955.238045,586.194737 C959.430608,574.754313 963.691232,564.309901 973.528976,566.268596 C982.993356,568.152786 983.911209,580.416686 981.894656,590.716009 L981.882988,590.77875 C978.530493,607.903114 968.278549,616.692732 961.908032,608.661888 L961.956647,608.408963 C969.173066,608.797173 979.271387,603.454387 981.632134,590.729733 L981.643802,590.666992 C983.662299,581.024489 981.639913,573.3995 976.877581,572.452503 C970.610128,571.203566 967.224575,579.852017 963.726235,589.396488 C958.998906,602.240741 955.125258,611.710707 945.28557,609.752012"/><polygon fill="#000" points="972.496 629.485 970.254 637.365 927.263 624.683 929.504 616.805"/><path fill="#000" d="M926.246886 689.44771C938.159059 694.218388 950.424691 690.469998 955.084108 678.762645 959.768912 666.994582 953.449602 655.806207 941.535476 651.037487 929.681888 646.292269 917.476793 650.06416 912.791989 661.830264 908.132572 673.539576 914.393297 684.702491 926.246886 689.44771M923.013024 697.571179C910.204509 692.444071 906.658196 676.549646 912.553745 661.736261 918.451247 646.920917 931.962776 637.786911 944.769338 642.914018 957.755559 648.113587 961.219854 664.043264 955.322352 678.858607 949.42485 693.671992 935.997292 702.770748 923.013024 697.571179M913.96959 760.726141 874.835062 738.365481 875.060379 737.971089 937.073343 719.52688C912.13767 705.277748 905.374258 702.454214 894.964638 703.03501L898.411 696.989627 937.543568 719.350287 932.088951 728.925578 884.619674 743.433714 914.192947 760.333711 913.96959 760.726141ZM845.511565 831.195721C852.865412 831.623342 859.598354 829.824994 868.432672 819.538677L834.742739 790.507365 839.966104 784.370332 873.656038 813.401644C882.352593 803.082133 883.082156 796.111338 881.529893 788.863273L889.227178 795.496268 853.20885 837.826763 845.511565 831.195721ZM793.761594 861.97007C802.184908 871.720205 814.685701 873.913142 823.981657 865.425186 833.325879 856.89357 832.682982 843.876852 824.257737 834.126716 815.874965 824.42421 803.416646 822.278903 794.072424 830.810519 784.776468 839.296491 785.376892 852.267564 793.761594 861.97007M787.309447 867.858255C778.252888 857.377802 782.141165 841.354478 793.90446 830.614048 805.665824 819.875603 821.649463 817.75411 830.707953 828.236547 839.891933 838.863857 835.912916 854.881228 824.149622 865.621657 812.388258 876.360103 796.493427 878.485565 787.309447 867.858255M710.163146 904.620527 704.185685 894.477518 743.904858 870.723029 766.894191 909.730504 759.92375 913.899378 737.063681 875.114847C717.106167 887.203199 709.953582 892.837985 710.163146 904.620527"/><polygon fill="#000" points="715.494 939.133 708.262 942.684 688.766 902.03 695.997 898.479"/><path fill="#000" d="M693.905602 948.630275 650.885182 965.299793 647.138293 955.658176C656.81022 962.19735 671.103836 957.118494 686.223103 951.306547L678.587784 931.659701C668.333968 935.737643 654.244801 941.704029 648.077964 947.035068L645.589212 940.624918C653.731717 940.386419 668.194394 935.379895 678.517014 931.481804L670.022624 909.61809 677.610762 906.70332 693.905602 948.630275ZM584.646117 948.693555 581.852697 937.423726 626.618991 926.235477 637.365145 969.576344 593.306879 980.719917 590.834586 970.751498C599.472135 978.389032 614.05634 975.13939 629.53235 971.27012L624.498777 950.962284C613.984763 953.72244 599.493414 957.871416 592.815516 962.366139L591.173124 955.740598C599.156811 956.505905 613.891907 953.349498 624.452349 950.775813L618.911938 928.424567C596.618745 934.127466 587.770336 937.522788 584.646117 948.693555M547.887862 960.353003C548.358448 965.435787 544.684331 969.932021 539.466533 970.402038 534.378687 970.860401 529.936668 967.096383 529.466081 962.011657 528.987619 956.866722 532.669612 952.434581 537.757458 951.976217 542.977225 951.504258 547.411368 955.206126 547.887862 960.353003"/></g></svg>